<mxfile host="app.diagrams.net" modified="2020-12-18T03:06:06.601Z" agent="5.0 (Windows NT 10.0; Win64; x64) AppleWebKit/537.36 (KHTML, like Gecko) Chrome/87.0.4280.88 Safari/537.36" etag="9Qna40Jsy-VqJ6PAzkqT" version="14.0.4" type="github">
  <diagram id="f_MVW4MgrTeuUNKyWJu2" name="第 1 页">
    <mxGraphModel dx="1422" dy="762" grid="1" gridSize="10" guides="1" tooltips="1" connect="1" arrows="1" fold="1" page="1" pageScale="1" pageWidth="827" pageHeight="1169" math="0" shadow="0">
      <root>
        <mxCell id="0" />
        <mxCell id="1" parent="0" />
        <mxCell id="hR_UYtSGSj2Vvy1Lok_M-5" style="edgeStyle=orthogonalEdgeStyle;rounded=0;orthogonalLoop=1;jettySize=auto;html=1;exitX=0.5;exitY=1;exitDx=0;exitDy=0;entryX=0.5;entryY=0;entryDx=0;entryDy=0;" edge="1" parent="1" source="hR_UYtSGSj2Vvy1Lok_M-1" target="hR_UYtSGSj2Vvy1Lok_M-2">
          <mxGeometry relative="1" as="geometry" />
        </mxCell>
        <mxCell id="hR_UYtSGSj2Vvy1Lok_M-1" value="Start" style="rounded=1;whiteSpace=wrap;html=1;" vertex="1" parent="1">
          <mxGeometry x="320" y="60" width="90" height="30" as="geometry" />
        </mxCell>
        <mxCell id="hR_UYtSGSj2Vvy1Lok_M-6" style="edgeStyle=orthogonalEdgeStyle;rounded=0;orthogonalLoop=1;jettySize=auto;html=1;exitX=0.5;exitY=1;exitDx=0;exitDy=0;" edge="1" parent="1" source="hR_UYtSGSj2Vvy1Lok_M-2" target="hR_UYtSGSj2Vvy1Lok_M-3">
          <mxGeometry relative="1" as="geometry" />
        </mxCell>
        <mxCell id="hR_UYtSGSj2Vvy1Lok_M-2" value="管理者定初稿" style="rounded=0;whiteSpace=wrap;html=1;" vertex="1" parent="1">
          <mxGeometry x="317.5" y="110" width="95" height="40" as="geometry" />
        </mxCell>
        <mxCell id="hR_UYtSGSj2Vvy1Lok_M-7" style="edgeStyle=orthogonalEdgeStyle;rounded=0;orthogonalLoop=1;jettySize=auto;html=1;exitX=0.5;exitY=1;exitDx=0;exitDy=0;entryX=0.5;entryY=0;entryDx=0;entryDy=0;" edge="1" parent="1" source="hR_UYtSGSj2Vvy1Lok_M-3" target="hR_UYtSGSj2Vvy1Lok_M-4">
          <mxGeometry relative="1" as="geometry" />
        </mxCell>
        <mxCell id="hR_UYtSGSj2Vvy1Lok_M-3" value="宣读" style="rounded=0;whiteSpace=wrap;html=1;" vertex="1" parent="1">
          <mxGeometry x="317.5" y="170" width="95" height="40" as="geometry" />
        </mxCell>
        <mxCell id="hR_UYtSGSj2Vvy1Lok_M-9" style="edgeStyle=orthogonalEdgeStyle;rounded=0;orthogonalLoop=1;jettySize=auto;html=1;exitX=0.5;exitY=1;exitDx=0;exitDy=0;entryX=0.5;entryY=0;entryDx=0;entryDy=0;" edge="1" parent="1" source="hR_UYtSGSj2Vvy1Lok_M-4" target="hR_UYtSGSj2Vvy1Lok_M-8">
          <mxGeometry relative="1" as="geometry" />
        </mxCell>
        <mxCell id="hR_UYtSGSj2Vvy1Lok_M-4" value="员工参与" style="rounded=0;whiteSpace=wrap;html=1;" vertex="1" parent="1">
          <mxGeometry x="317.5" y="230" width="95" height="40" as="geometry" />
        </mxCell>
        <mxCell id="hR_UYtSGSj2Vvy1Lok_M-11" style="edgeStyle=orthogonalEdgeStyle;rounded=0;orthogonalLoop=1;jettySize=auto;html=1;exitX=0.5;exitY=1;exitDx=0;exitDy=0;entryX=0.5;entryY=0;entryDx=0;entryDy=0;" edge="1" parent="1" source="hR_UYtSGSj2Vvy1Lok_M-8" target="hR_UYtSGSj2Vvy1Lok_M-10">
          <mxGeometry relative="1" as="geometry" />
        </mxCell>
        <mxCell id="hR_UYtSGSj2Vvy1Lok_M-8" value="修改" style="rounded=0;whiteSpace=wrap;html=1;" vertex="1" parent="1">
          <mxGeometry x="317.5" y="290" width="95" height="40" as="geometry" />
        </mxCell>
        <mxCell id="hR_UYtSGSj2Vvy1Lok_M-13" style="edgeStyle=orthogonalEdgeStyle;rounded=0;orthogonalLoop=1;jettySize=auto;html=1;exitX=0.5;exitY=1;exitDx=0;exitDy=0;" edge="1" parent="1" source="hR_UYtSGSj2Vvy1Lok_M-10" target="hR_UYtSGSj2Vvy1Lok_M-12">
          <mxGeometry relative="1" as="geometry" />
        </mxCell>
        <mxCell id="hR_UYtSGSj2Vvy1Lok_M-10" value="定稿" style="rounded=0;whiteSpace=wrap;html=1;" vertex="1" parent="1">
          <mxGeometry x="317.5" y="350" width="95" height="40" as="geometry" />
        </mxCell>
        <mxCell id="hR_UYtSGSj2Vvy1Lok_M-15" style="edgeStyle=orthogonalEdgeStyle;rounded=0;orthogonalLoop=1;jettySize=auto;html=1;exitX=0.5;exitY=1;exitDx=0;exitDy=0;" edge="1" parent="1" source="hR_UYtSGSj2Vvy1Lok_M-12" target="hR_UYtSGSj2Vvy1Lok_M-14">
          <mxGeometry relative="1" as="geometry" />
        </mxCell>
        <mxCell id="hR_UYtSGSj2Vvy1Lok_M-12" value="周期性改进" style="rounded=0;whiteSpace=wrap;html=1;" vertex="1" parent="1">
          <mxGeometry x="317.5" y="410" width="95" height="40" as="geometry" />
        </mxCell>
        <mxCell id="hR_UYtSGSj2Vvy1Lok_M-14" value="End" style="rounded=1;whiteSpace=wrap;html=1;" vertex="1" parent="1">
          <mxGeometry x="320" y="470" width="90" height="30" as="geometry" />
        </mxCell>
      </root>
    </mxGraphModel>
  </diagram>
</mxfile>
